<svg width="102" height="41" viewBox="0 0 102 41" fill="none" xmlns="http://www.w3.org/2000/svg">
<path fill-rule="evenodd" clip-rule="evenodd" d="M54.063 23.6488L52.5212 16.458H52.5207C52.4928 16.3137 52.4573 16.1827 52.4036 16.0594C52.3482 15.9339 52.273 15.8091 52.1468 15.708C51.962 15.5605 51.7361 15.5035 51.52 15.5045H51.0674C50.9375 15.5047 50.8092 15.521 50.6821 15.5678C50.556 15.6138 50.4301 15.6963 50.3357 15.8143L50.3348 15.8153C50.2056 15.9769 50.1214 16.1672 50.0617 16.376H50.0615L49.0125 19.867L48.8071 20.6475L48.6098 19.9128L47.5758 16.3792H47.5755C47.5426 16.2557 47.5057 16.1429 47.457 16.0381C47.4059 15.9294 47.3434 15.8248 47.2438 15.731C47.1399 15.634 47.0216 15.5795 46.9071 15.5475C46.7918 15.5157 46.6761 15.5047 46.5547 15.5045H46.1447C45.9315 15.5032 45.7154 15.5647 45.5339 15.686C45.396 15.7773 45.3004 15.9066 45.2351 16.0389C45.171 16.1694 45.131 16.308 45.1014 16.458H45.1011L43.5591 23.6488L43.5598 23.6491C43.5484 23.6961 43.539 23.7474 43.5387 23.8106C43.5385 23.8744 43.5484 23.9514 43.5811 24.0307C43.605 24.09 43.6424 24.1485 43.6873 24.1952C43.7552 24.2665 43.8347 24.308 43.9017 24.329C43.9696 24.3505 44.0276 24.3553 44.0794 24.3558H44.8574C44.91 24.3553 44.9651 24.352 45.033 24.3345C45.0995 24.3163 45.1878 24.2835 45.276 24.192L45.2772 24.1907C45.3664 24.0915 45.396 24.0132 45.4282 23.9339L45.4424 23.8966L46.3557 19.2351L46.4288 18.8372L46.5519 19.2773L47.6699 23.1369L47.6704 23.1387C47.7262 23.3255 47.7925 23.491 47.8829 23.6393L47.8836 23.6403L47.8838 23.6406C47.9667 23.7769 48.0966 23.8766 48.2236 23.9277C48.3521 23.9804 48.4787 23.9964 48.606 23.9969H48.974C49.1086 23.9967 49.2406 23.9802 49.3715 23.9312C49.5014 23.8831 49.6318 23.7959 49.7269 23.6703C49.8412 23.5213 49.9276 23.3495 49.9808 23.1659L49.9815 23.1634L51.1277 19.0808L51.1845 18.8807L51.2382 19.1613L52.166 23.8979L52.1807 23.9364C52.2129 24.0144 52.242 24.09 52.3281 24.188L52.3314 24.1915L52.3347 24.1947C52.4211 24.2828 52.5086 24.3163 52.5749 24.3345C52.643 24.352 52.6979 24.3553 52.7507 24.3558H53.5429C53.5888 24.3555 53.6395 24.3515 53.6982 24.3358C53.7419 24.3238 53.7902 24.3048 53.8394 24.2738C53.9132 24.2282 53.9864 24.1492 54.028 24.0602C54.0708 23.9714 54.0836 23.8821 54.0834 23.8109C54.0831 23.7474 54.0737 23.6961 54.0623 23.6491L54.063 23.6488Z" fill="white"/>
<path fill-rule="evenodd" clip-rule="evenodd" d="M65.1429 15.6543C65.0719 15.5855 64.9934 15.5482 64.9274 15.5287C64.8609 15.5092 64.8036 15.5047 64.7518 15.5045H64.0161C63.9567 15.505 63.895 15.5087 63.8185 15.5307C63.7804 15.5422 63.7381 15.5585 63.6919 15.5865C63.6463 15.6142 63.5961 15.6548 63.5528 15.7118L63.5521 15.7125C63.4901 15.796 63.4603 15.8671 63.4314 15.9411L63.4286 15.9481L63.4262 15.9551C63.2653 16.425 63.1049 16.8991 62.9442 17.3783L62.9445 17.378C62.7833 17.8579 62.6366 18.3033 62.5041 18.7139C62.3716 19.1233 62.2606 19.4704 62.1707 19.7559V19.7557C62.1262 19.8962 62.0898 20.0098 62.0616 20.0945C62.0339 20.1781 62.0124 20.2376 62.0067 20.2503L62.0046 20.2561L62.0025 20.2613C61.9854 20.3071 61.9705 20.3541 61.9487 20.4236C61.9277 20.4921 61.9019 20.5787 61.8707 20.685L61.8709 20.6845C61.8098 20.892 61.7396 21.1276 61.6598 21.3904L61.6601 21.3902C61.6407 21.4542 61.6213 21.5194 61.6018 21.5835C61.5325 21.3356 61.4689 21.1018 61.4123 20.885L61.4097 20.8755L61.4121 20.8848C61.3808 20.7652 61.3536 20.6649 61.33 20.5817C61.3058 20.4979 61.2862 20.4329 61.2661 20.3756L61.2673 20.3791C61.1956 20.1711 61.0976 19.861 60.9762 19.4559V19.4556C60.8527 19.0445 60.72 18.6159 60.5777 18.1697C60.4365 17.7274 60.3025 17.3022 60.1755 16.8946C60.0484 16.4867 59.9519 16.1737 59.887 15.9576L59.8821 15.9406L59.8754 15.9236C59.8433 15.8458 59.8144 15.77 59.728 15.6723L59.725 15.6688L59.7216 15.6653C59.6206 15.5647 59.5319 15.5402 59.4666 15.523C59.3994 15.5075 59.3454 15.5047 59.2915 15.5045H58.5134C58.4675 15.5047 58.4167 15.5087 58.3582 15.5245C58.3144 15.5362 58.2662 15.5552 58.217 15.5865C58.1429 15.632 58.0698 15.711 58.0284 15.8C57.9853 15.8888 57.9725 15.9781 57.9728 16.0494C57.9732 16.1266 57.9858 16.1879 58.0009 16.2419L58.0026 16.2479L60.2678 23.46L60.268 23.4603C60.3089 23.589 60.3544 23.7033 60.4199 23.8126C60.4857 23.9194 60.5751 24.0329 60.7287 24.1069C60.7621 24.1227 60.7976 24.1297 60.8321 24.1414L60.5943 24.8279L60.5917 24.8372C60.5342 25.0282 60.471 25.169 60.4175 25.2533C60.3551 25.3523 60.2964 25.4141 60.25 25.4491C60.2013 25.4853 60.1521 25.5078 60.087 25.5216C59.9961 25.5399 59.8863 25.5509 59.7583 25.5509C59.6632 25.5509 59.5773 25.5444 59.5011 25.5329C59.4275 25.5221 59.2853 25.4918 59.0941 25.4436V25.4443C59.0361 25.4263 58.9744 25.4118 58.897 25.4113C58.8504 25.4113 58.7979 25.4171 58.742 25.4336C58.6746 25.4538 58.6138 25.4893 58.5672 25.5288C58.4962 25.5894 58.455 25.6539 58.4261 25.7099C58.3975 25.7667 58.3802 25.8179 58.3667 25.8672L58.366 25.8704L58.2243 26.4249C58.2106 26.4774 58.2013 26.5361 58.2013 26.6002C58.2011 26.6744 58.2148 26.7567 58.2453 26.8327C58.2905 26.948 58.3705 27.0388 58.4481 27.0956C58.5224 27.1506 58.5948 27.1811 58.6649 27.2036L58.6646 27.2043C58.6675 27.2051 58.6698 27.2056 58.6727 27.2066C58.6743 27.2071 58.676 27.2078 58.6777 27.2083V27.2078C58.9337 27.2934 59.176 27.3486 59.4086 27.3666C59.6088 27.3821 59.7806 27.3904 59.928 27.3904C60.2138 27.3904 60.4838 27.3526 60.7351 27.2714C60.9864 27.1901 61.218 27.0643 61.4194 26.896C61.6293 26.7202 61.8053 26.4916 61.9589 26.2208C62.1122 25.9495 62.2436 25.6339 62.3598 25.272L65.2761 16.2497L65.2785 16.2414C65.2932 16.1889 65.3055 16.1284 65.3057 16.0534C65.306 15.9851 65.2941 15.9026 65.2577 15.8201C65.2307 15.7583 65.19 15.6998 65.1429 15.6543Z" fill="white"/>
<path fill-rule="evenodd" clip-rule="evenodd" d="M79.3602 15.8293C79.3361 15.77 79.2987 15.7115 79.254 15.6648C79.1858 15.5935 79.1063 15.552 79.0393 15.531C78.9714 15.5095 78.9135 15.5047 78.8616 15.5045H78.0836C78.0313 15.5047 77.976 15.508 77.908 15.5255C77.8418 15.5437 77.7535 15.5765 77.6653 15.668L77.6638 15.6693C77.5746 15.7685 77.5451 15.8468 77.5129 15.9261L77.4989 15.9633L76.5853 20.6249L76.5122 21.0228L76.3894 20.5834L75.2709 16.7231L75.2706 16.7213C75.2148 16.5345 75.1488 16.369 75.0581 16.2207L75.0572 16.2194C74.9744 16.0831 74.8447 15.9834 74.7176 15.9323C74.5892 15.8796 74.4623 15.8636 74.335 15.8631H73.9673C73.8324 15.8633 73.7006 15.8798 73.5695 15.9288C73.4396 15.9768 73.3093 16.0641 73.2141 16.1897C73.0999 16.3385 73.0132 16.5105 72.9605 16.6941L72.9598 16.6956L71.8133 20.7795L71.8138 20.778L71.7568 20.9793L71.7026 20.6987L70.775 15.9621L70.7604 15.9236C70.7279 15.8456 70.6993 15.77 70.6129 15.672L70.6096 15.6685L70.6066 15.6653C70.5199 15.5772 70.4324 15.5437 70.3661 15.5255C70.2982 15.508 70.2429 15.5047 70.1906 15.5045H69.3981C69.3522 15.5045 69.3016 15.5085 69.2431 15.5242C69.1991 15.5362 69.1508 15.5552 69.1016 15.5862C69.0278 15.6317 68.9547 15.7108 68.9128 15.7998C68.8702 15.8888 68.8574 15.9778 68.8574 16.0491C68.8579 16.1129 68.8674 16.1642 68.8787 16.2109L68.878 16.2112L70.4199 23.402H70.4201C70.4485 23.5463 70.4837 23.6773 70.5375 23.8009C70.5928 23.9261 70.6681 24.0509 70.7942 24.152C70.9792 24.2995 71.2052 24.3565 71.421 24.3555H71.8737C72.0038 24.3553 72.1318 24.339 72.2589 24.2922C72.385 24.2462 72.5109 24.1637 72.6055 24.0457L72.6072 24.0437L72.6063 24.0449C72.7355 23.8831 72.8197 23.6928 72.8793 23.484H72.8796L73.9287 19.993L74.1339 19.2125L74.3312 19.9472L75.3653 23.4808H75.3658C75.3984 23.6043 75.4353 23.7171 75.4841 23.8219C75.5354 23.9309 75.5976 24.0352 75.6973 24.1292C75.8014 24.226 75.9197 24.2807 76.034 24.3125C76.1492 24.3443 76.2649 24.3553 76.3863 24.3555H76.7966C77.0096 24.3568 77.2256 24.2952 77.4073 24.174C77.5453 24.0827 77.6407 23.9534 77.706 23.8211C77.7701 23.6906 77.8101 23.552 77.8397 23.402H77.8401L79.382 16.2112L79.3813 16.2109C79.3926 16.1642 79.4021 16.1131 79.4023 16.0494C79.4023 15.9856 79.3924 15.9086 79.3602 15.8293Z" fill="white"/>
<path fill-rule="evenodd" clip-rule="evenodd" d="M86.7048 17.0942C87.0656 17.0939 87.3413 17.1569 87.5396 17.2582C87.758 17.37 87.9087 17.5053 88.0192 17.6703C88.1401 17.8519 88.2293 18.0655 88.2847 18.323C88.3136 18.4573 88.3351 18.5956 88.35 18.7376H85.0496C85.0751 18.5991 85.1073 18.4658 85.148 18.3393C85.2322 18.077 85.3463 17.8599 85.4902 17.6766L85.4906 17.6761C85.6312 17.497 85.799 17.3575 86.0074 17.2495C86.2024 17.1489 86.4286 17.0944 86.7048 17.0942ZM90.0232 17.5758C89.8845 17.1129 89.6682 16.6991 89.3767 16.3505C89.0795 15.9946 88.7 15.7208 88.2594 15.534C87.8077 15.3422 87.2906 15.2544 86.7119 15.2544C86.1887 15.2541 85.6951 15.3547 85.2457 15.561C84.7954 15.7668 84.4 16.0754 84.0733 16.4722C83.7425 16.8734 83.4919 17.3613 83.3168 17.9222C83.1391 18.4918 83.0548 19.131 83.0548 19.8367C83.0548 20.5782 83.1317 21.2326 83.2962 21.8033C83.4606 22.3729 83.7157 22.8611 84.069 23.2429C84.4095 23.6123 84.8203 23.8924 85.2843 24.0749C85.7486 24.2577 86.2642 24.3448 86.825 24.3445C87.2121 24.3445 87.6072 24.3035 88.009 24.2227C88.4295 24.1382 88.828 23.9762 89.1962 23.7418C89.2693 23.7023 89.3467 23.6448 89.411 23.5543C89.4839 23.4543 89.5239 23.3162 89.5218 23.1989C89.521 23.0696 89.4865 22.9674 89.4475 22.8821L89.446 22.8786L89.19 22.3497L89.1912 22.3527C89.1526 22.2714 89.0916 22.1816 88.9969 22.1124C88.9037 22.0423 88.7814 22.0063 88.6777 22.0078C88.5518 22.0088 88.4539 22.0466 88.3715 22.0894L88.3647 22.0929L88.3578 22.0969C88.19 22.1934 87.97 22.2822 87.6988 22.3544C87.4355 22.425 87.1669 22.4602 86.8893 22.4602C86.5987 22.4602 86.3354 22.417 86.0931 22.3339C85.8657 22.2552 85.6783 22.1344 85.5117 21.9606C85.3527 21.794 85.2164 21.5647 85.1102 21.2529V21.2526C85.0437 21.0581 84.9982 20.8202 84.9731 20.5474H88.8479C89.1798 20.5487 89.5012 20.4589 89.7655 20.2643C89.946 20.133 90.0672 19.9367 90.1341 19.7322C90.2021 19.5256 90.2269 19.3038 90.2274 19.0595C90.2274 18.5311 90.1609 18.0349 90.0234 17.5763L90.0232 17.5758Z" fill="white"/>
<path fill-rule="evenodd" clip-rule="evenodd" d="M98.1587 22.634C98.0135 22.648 97.8866 22.6548 97.7804 22.6545C97.4704 22.6545 97.1985 22.6105 96.9602 22.5277C96.7416 22.4512 96.5675 22.3309 96.4118 22.1486C96.2601 21.9701 96.1285 21.7185 96.0291 21.3772C95.9328 21.0483 95.8779 20.6122 95.8784 20.076C95.8782 19.5519 95.9345 19.1123 96.0362 18.7594L96.0365 18.7592C96.1411 18.3963 96.2818 18.1147 96.4501 17.9017C96.6235 17.6828 96.814 17.5325 97.0376 17.4313C97.2669 17.3282 97.5244 17.2737 97.823 17.2735C98.018 17.2735 98.2496 17.2895 98.5149 17.3225C98.6838 17.3437 98.8918 17.3913 99.131 17.4653V22.4632C99.1019 22.4715 99.0754 22.4802 99.0442 22.488C98.9013 22.5247 98.7562 22.5545 98.609 22.5773C98.4562 22.601 98.3062 22.62 98.1587 22.634ZM101.001 12.931C100.978 12.849 100.934 12.7419 100.833 12.6496L100.832 12.6489L100.832 12.6486C100.754 12.5794 100.673 12.5456 100.604 12.5271C100.534 12.5086 100.473 12.5039 100.414 12.5036H99.7583C99.698 12.5039 99.6369 12.5079 99.5669 12.5246C99.4978 12.5424 99.4143 12.5716 99.3262 12.6486L99.3253 12.6496C99.2236 12.7422 99.1798 12.8497 99.1578 12.9317C99.136 13.016 99.1315 13.0863 99.131 13.1545V15.5555C98.9661 15.5195 98.8021 15.4917 98.6391 15.4737C98.3111 15.4374 98.0168 15.4189 97.7522 15.4189C97.1148 15.4187 96.5388 15.5445 96.0422 15.8126C95.5649 16.0704 95.1591 16.4227 94.842 16.8609C94.5275 17.2942 94.298 17.7969 94.1529 18.3555C94.0103 18.9052 93.9395 19.4801 93.9395 20.076C93.9398 20.7247 94.001 21.3151 94.1295 21.848C94.2592 22.3887 94.4729 22.8678 94.7743 23.268C95.0784 23.6733 95.4771 23.9859 95.9449 24.196C96.4222 24.4105 96.9721 24.5091 97.5897 24.5091C98.0336 24.5091 98.5137 24.475 99.0314 24.4085C99.5728 24.339 100.102 24.1862 100.614 23.9531L100.615 23.9534C100.616 23.9531 100.617 23.9524 100.618 23.9519C100.62 23.9506 100.623 23.9496 100.626 23.9484L100.626 23.9479C100.738 23.8991 100.855 23.8064 100.927 23.6813C101.002 23.5528 101.028 23.4117 101.027 23.2905V13.1545C101.027 13.086 101.022 13.0152 101.001 12.931Z" fill="white"/>
<path fill-rule="evenodd" clip-rule="evenodd" d="M32.4643 27.3039C32.4645 27.5474 32.4217 27.8385 32.3341 28.1424C32.2042 28.5982 31.9735 29.0804 31.69 29.4862C31.408 29.8939 31.0717 30.2217 30.771 30.403L18.9121 37.6388C18.7129 37.7609 18.4528 37.8674 18.1601 37.9389C17.8677 38.0112 17.5435 38.0495 17.2193 38.0495C16.8949 38.0495 16.5707 38.0112 16.2783 37.9389C15.9856 37.8674 15.7258 37.7609 15.5263 37.6388L3.66719 30.403C3.46724 30.2815 3.25026 30.0969 3.04511 29.8646C2.73655 29.5177 2.45686 29.0656 2.26591 28.6032C2.07306 28.1414 1.97249 27.6695 1.97415 27.3039V12.8319C1.97368 12.5884 2.01651 12.2973 2.10429 11.9937C2.2342 11.5376 2.46491 11.0557 2.74838 10.6496C3.03044 10.2422 3.36668 9.9141 3.66719 9.73305L15.5263 2.49697C15.7258 2.37493 15.9856 2.26865 16.2783 2.19688C16.5707 2.12461 16.8949 2.08635 17.2193 2.0866C17.5435 2.08635 17.8677 2.12461 18.1601 2.19688C18.4528 2.26865 18.7129 2.37493 18.9121 2.49697L30.7712 9.73305C30.9709 9.85434 31.1882 10.0391 31.3931 10.2712C31.7019 10.6183 31.9816 11.0702 32.1723 11.5328C32.3654 11.9947 32.4659 12.4666 32.4643 12.8319V27.3039ZM34.2233 11.3878C34.0203 10.6836 33.6949 10.0101 33.2801 9.41321C32.8639 8.81779 32.3599 8.29514 31.7582 7.92603L19.8993 0.690199C19.4973 0.445378 19.0605 0.27658 18.6083 0.164797C18.1559 0.0535154 17.6876 0 17.2193 0C16.7508 0 16.2825 0.0535154 15.8301 0.164797C15.3779 0.27658 14.9409 0.445378 14.5391 0.690199L2.68 7.92603C2.27845 8.1716 1.92186 8.48694 1.60407 8.84505C1.12869 9.38295 0.739448 10.0176 0.45763 10.6956C0.177704 11.3743 0.00165636 12.0967 0 12.8319V27.3039C0.000473247 27.7943 0.080452 28.2784 0.215091 28.748C0.418114 29.4522 0.743471 30.1257 1.15827 30.7226C1.57449 31.3183 2.0785 31.8407 2.68 32.2098L14.5391 39.4459C14.9409 39.6904 15.3779 39.8595 15.8301 39.971C16.2825 40.0823 16.7508 40.1358 17.2193 40.1361C17.6876 40.1358 18.1559 40.0823 18.6083 39.971C19.0605 39.8595 19.4973 39.6904 19.8993 39.4459L31.7582 32.2098C32.1597 31.9645 32.5166 31.6489 32.8343 31.2908C33.3097 30.7531 33.699 30.1184 33.9808 29.4405C34.2607 28.7618 34.4368 28.0391 34.4384 27.3039V12.8319C34.4382 12.3418 34.358 11.8574 34.2233 11.3878Z" fill="white"/>
<path fill-rule="evenodd" clip-rule="evenodd" d="M21.9179 30.9857C21.8599 31.0139 21.8032 31.0287 21.7312 31.0289C21.6591 31.0287 21.6023 31.0139 21.5445 30.9857C21.4593 30.9444 21.3716 30.8636 21.3074 30.7544C21.2447 30.6493 21.2121 30.5245 21.2107 30.4165C21.2151 30.396 21.2267 30.353 21.2485 30.2972C21.2989 30.1619 21.4021 29.9601 21.5282 29.7541C21.5916 29.6495 21.6612 29.5443 21.7319 29.4402C21.8886 29.6705 22.0372 29.9139 22.1335 30.1129C22.1848 30.2177 22.2208 30.3092 22.2388 30.368C22.2461 30.392 22.2501 30.4083 22.252 30.4183C22.2508 30.5626 22.1862 30.7381 22.0838 30.8539C22.0322 30.9137 21.9749 30.9577 21.9179 30.9857ZM17.3199 21.0531C17.295 21.0238 17.2711 20.9998 17.2441 20.9743L17.2446 20.9738L17.2408 20.9703C17.2183 20.9485 17.1062 20.8265 17.0193 20.6735C16.9758 20.5974 16.9379 20.5147 16.9136 20.4361C16.889 20.3569 16.8771 20.2833 16.8769 20.2121C16.8769 20.1353 16.8925 20.0503 16.9259 19.9565C16.9744 19.817 17.0669 19.6659 17.1471 19.5626C17.1869 19.5109 17.2224 19.4704 17.2444 19.4471L17.2657 19.4248L17.2666 19.4236C17.2872 19.4036 17.3094 19.3803 17.3303 19.3566C17.3508 19.3803 17.3729 19.4036 17.3937 19.4236H17.3934L17.4133 19.4441C17.459 19.4919 17.5704 19.6239 17.6525 19.7759C17.6942 19.852 17.7287 19.9317 17.7507 20.0063C17.773 20.0808 17.7832 20.1488 17.7832 20.2121C17.7832 20.2928 17.7675 20.3776 17.7356 20.4689C17.6892 20.6047 17.6017 20.748 17.5262 20.8455C17.4886 20.8945 17.4554 20.932 17.4353 20.9535L17.4164 20.973L17.4169 20.9735C17.3897 20.9993 17.3653 21.0238 17.3404 21.0531L17.3303 21.0651L17.3199 21.0531ZM17.4171 20.9733L17.4166 20.973L17.4171 20.9733ZM13.1158 30.9857C13.0578 31.0139 13.0012 31.0287 12.9291 31.0289C12.8571 31.0287 12.8003 31.0139 12.7424 30.9857C12.6572 30.9444 12.5694 30.8636 12.5053 30.7544C12.4428 30.6493 12.4099 30.5245 12.4085 30.4165C12.4132 30.396 12.4248 30.353 12.4464 30.2972C12.497 30.1619 12.5999 29.9601 12.726 29.7541C12.7895 29.6495 12.859 29.5443 12.9298 29.4402C13.0864 29.6705 13.235 29.9139 13.3316 30.1129C13.3827 30.2177 13.4189 30.3092 13.4366 30.368C13.4442 30.392 13.448 30.4083 13.4499 30.4183C13.4489 30.5626 13.3843 30.7381 13.2819 30.8539C13.2301 30.9137 13.1728 30.9577 13.1158 30.9857ZM12.7424 9.13163C12.8003 9.10362 12.8571 9.08887 12.9291 9.08837C13.0012 9.08887 13.0578 9.10362 13.1158 9.13163C13.2009 9.17314 13.2887 9.25391 13.3529 9.36295C13.4153 9.46823 13.4482 9.59301 13.4496 9.70104C13.4449 9.7213 13.4335 9.76456 13.4118 9.82008C13.3611 9.95562 13.2582 10.1574 13.1321 10.3635C13.0687 10.4678 12.9991 10.573 12.9286 10.6773C12.7717 10.447 12.6231 10.2034 12.5268 10.0044C12.4755 9.89985 12.4393 9.80807 12.4215 9.74931C12.4142 9.72555 12.4104 9.7093 12.4083 9.69904C12.4094 9.55475 12.474 9.3792 12.5763 9.26367C12.6278 9.20365 12.6853 9.15989 12.7424 9.13163ZM21.5445 9.13163C21.6023 9.10362 21.6591 9.08887 21.7312 9.08837C21.8032 9.08887 21.8599 9.10362 21.9179 9.13163C22.0031 9.17314 22.0909 9.25391 22.155 9.36295C22.2175 9.46823 22.2504 9.59301 22.2516 9.70079C22.2471 9.7213 22.2355 9.76456 22.2139 9.82008C22.1633 9.95562 22.0604 10.1574 21.9342 10.3635C21.8708 10.4678 21.8013 10.573 21.7305 10.6773C21.5739 10.447 21.4253 10.2034 21.3287 10.0044C21.2776 9.89985 21.2414 9.80807 21.2237 9.74931C21.2161 9.72555 21.2123 9.7093 21.2102 9.69904C21.2114 9.55475 21.276 9.3792 21.3784 9.26367C21.43 9.20365 21.4873 9.15989 21.5445 9.13163ZM26.1012 20.8728H23.1446C22.5994 20.8728 22.1574 21.3399 22.1574 21.9161C22.1574 22.4922 22.5994 22.9591 23.1446 22.9591H24.0674L21.6801 26.1628L18.6594 22.6228L18.7784 22.4835C18.8697 22.3919 19.0498 22.1981 19.2401 21.9021C19.3621 21.7108 19.488 21.4757 19.5872 21.1936C19.6858 20.912 19.7575 20.5797 19.7575 20.2121C19.7573 19.84 19.6832 19.5054 19.5822 19.2215C19.4293 18.7952 19.2195 18.4756 19.0477 18.25C18.9313 18.0982 18.8338 17.9932 18.7708 17.9294L18.631 17.7571L21.678 14.0045L24.0821 17.4048H23.1446C22.5994 17.4048 22.1574 17.8719 22.1574 18.4481C22.1574 19.0242 22.5994 19.4914 23.1446 19.4914H26.0522C26.4268 19.4914 26.7668 19.2695 26.9346 18.9154C27.1026 18.5616 27.0671 18.1407 26.843 17.8236L22.9908 12.3756C23.0838 12.2518 23.1827 12.1157 23.283 11.9709C23.4903 11.6701 23.703 11.3348 23.8802 10.9757C23.969 10.7954 24.0492 10.6086 24.1131 10.4047C24.1755 10.2007 24.2262 9.97887 24.2274 9.71155C24.225 9.01134 23.9737 8.36066 23.5428 7.85801C23.3265 7.60694 23.0613 7.39338 22.7534 7.24134C22.4463 7.08904 22.0961 7.00152 21.7312 7.00202C21.3663 7.00152 21.0159 7.08904 20.709 7.24134C20.2469 7.47015 19.8822 7.83451 19.631 8.26113C19.3799 8.689 19.2356 9.1864 19.2348 9.71155C19.2363 9.97887 19.2867 10.2007 19.3494 10.405C19.4615 10.7603 19.6213 11.0714 19.7942 11.3703C20.0022 11.7261 20.2322 12.0545 20.4367 12.3293L17.3303 16.1552L14.2232 12.3288C14.3062 12.2173 14.3928 12.0985 14.4808 11.9709C14.6884 11.6701 14.9008 11.3348 15.0783 10.9757C15.1668 10.7954 15.247 10.6086 15.3109 10.4047C15.3736 10.2007 15.424 9.97887 15.4254 9.71155C15.4228 9.01134 15.1718 8.36066 14.7409 7.85801C14.5244 7.60694 14.2591 7.39338 13.9513 7.24134C13.6441 7.08904 13.2939 7.00152 12.9291 7.00202C12.5642 7.00152 12.2138 7.08904 11.9069 7.24134C11.4447 7.47015 11.0801 7.83451 10.8288 8.26113C10.5777 8.689 10.4334 9.1864 10.4329 9.71155C10.4341 9.97887 10.4845 10.2007 10.5472 10.405C10.6596 10.7603 10.8191 11.0714 10.9921 11.3703C11.2126 11.7469 11.4563 12.0917 11.6695 12.3756L7.81729 17.8236C7.59321 18.1407 7.55771 18.5616 7.72548 18.9154C7.89348 19.2695 8.23351 19.4914 8.60808 19.4914H11.5157C12.0609 19.4914 12.5029 19.0242 12.5029 18.4481C12.5029 17.8719 12.0609 17.4048 11.5157 17.4048H10.578L12.9823 14.0045L16.0293 17.7571L15.8918 17.9264C15.7977 18.0217 15.6195 18.217 15.4316 18.5073C15.3078 18.7006 15.1796 18.9372 15.0781 19.2215C14.977 19.5054 14.9027 19.84 14.9027 20.2121C14.9027 20.5797 14.9744 20.912 15.0731 21.1936C15.2227 21.617 15.429 21.9338 15.5984 22.1569C15.7179 22.3127 15.8187 22.42 15.8807 22.482L16.0009 22.6228L12.9802 26.1628L10.5929 22.9591H11.5157C12.0609 22.9591 12.5029 22.4922 12.5029 21.9161C12.5029 21.3399 12.0609 20.8728 11.5157 20.8728H8.5591C8.18122 20.8728 7.83598 21.1013 7.67082 21.4604C7.50589 21.8195 7.5499 22.2477 7.78345 22.5615L11.6567 27.759C11.5675 27.8785 11.4731 28.0081 11.3773 28.1466C11.17 28.4474 10.957 28.7825 10.7798 29.1416C10.6913 29.3222 10.6113 29.509 10.5475 29.7126C10.4847 29.9169 10.4341 30.1384 10.4329 30.406C10.4353 31.106 10.6863 31.7566 11.1172 32.2595C11.3338 32.5104 11.599 32.7242 11.9069 32.8762C12.2138 33.0283 12.5642 33.116 12.9291 33.1155C13.2939 33.116 13.6441 33.0283 13.9513 32.8762C14.4134 32.6472 14.7778 32.283 15.0293 31.8562C15.2804 31.4283 15.4245 30.9309 15.4254 30.406C15.424 30.1387 15.3736 29.9166 15.3109 29.7123C15.1988 29.357 15.039 29.0459 14.8658 28.7473C14.6626 28.3992 14.4378 28.0768 14.2366 27.8058L17.3303 24.1805L20.4239 27.8063C20.3448 27.913 20.263 28.0256 20.1794 28.1466C19.9722 28.4474 19.7592 28.7825 19.582 29.1416C19.4935 29.3222 19.4133 29.509 19.3494 29.7126C19.2867 29.9169 19.2363 30.1384 19.2348 30.406C19.2374 31.106 19.4885 31.7566 19.9194 32.2595C20.1357 32.5104 20.4012 32.7242 20.709 32.8762C21.0159 33.0283 21.3663 33.116 21.7312 33.1155C22.0961 33.116 22.4463 33.0283 22.7534 32.8762C23.2156 32.6472 23.58 32.283 23.8315 31.8562C24.0825 31.4283 24.2267 30.9309 24.2274 30.406C24.2262 30.1387 24.1758 29.9166 24.1131 29.7123C24.0007 29.357 23.8412 29.0459 23.668 28.7473C23.4522 28.3782 23.2137 28.0396 23.0035 27.759L26.8768 22.5615C27.1106 22.2477 27.1544 21.8195 26.9892 21.4604C26.8245 21.1013 26.4791 20.8728 26.1012 20.8728Z" fill="white"/>
</svg>
