<svg version="1.1" id="Layer_1" xmlns="http://www.w3.org/2000/svg" x="0" y="0" viewBox="0 0 1200 344.8" xml:space="preserve"><style>.st0{fill:#2f4d71}</style><path class="st0" d="M303.6 209.7v50.1h-22.9v-125h22.9v13.5h.2c6.7-10.4 16.2-15.6 28.4-15.6 10.9 0 19.5 3.8 25.8 11.3 6.3 7.5 9.4 17.9 9.4 31.1 0 14.2-3.6 25.7-10.7 34.3-7.1 8.7-16.6 13-28.4 13-10.6 0-18.8-4.3-24.5-12.8h-.2zm-.4-26.5c0 6.2 1.8 11.3 5.4 15.4 3.6 4.1 8.2 6.1 13.9 6.1 6.7 0 11.9-2.6 15.7-7.7 3.8-5.2 5.7-12.4 5.7-21.7 0-16.6-6.6-24.8-19.8-24.8-6.2 0-11.3 2.3-15.1 6.9-3.8 4.6-5.8 10.4-5.8 17.4v8.4zM429 155.7c-3-1.8-6.7-2.7-11.1-2.7-5.8 0-10.4 2.3-13.8 7-3.5 4.6-5.2 10.9-5.2 18.7v41.7h-23v-85.6h23v16.4h.2c4.2-11.9 11.8-17.9 22.8-17.9 3.1 0 5.5.4 7.1 1.1v21.3zm-2.1 22.4c0-14 4.1-25.1 12.3-33.2 8.2-8.1 19.3-12.2 33.4-12.2 13.6 0 24.3 4 32.1 11.9 7.9 8 11.8 18.6 11.8 32 0 13.9-4.1 25-12.2 33.3-8.1 8.3-19.1 12.5-33 12.5-13.6 0-24.4-4-32.4-12-8-7.9-12-18.7-12-32.3zm22.9-.3c0 18 7.4 27 22.3 27 14.3 0 21.5-9.2 21.5-27.6 0-17.8-7.2-26.7-21.6-26.7-7 0-12.5 2.4-16.4 7.3-3.9 4.8-5.8 11.5-5.8 20zm75.7 42.6V93.8h22.9v126.6h-22.9zm116.3 0h-23v-13.2h-.4c-6.4 10.2-15.3 15.3-26.7 15.3-20.4 0-30.6-12.1-30.6-36.2v-51.5h23.1V184c0 13.8 5.5 20.8 16.4 20.8 5.4 0 9.7-1.9 13.1-5.7 3.4-3.8 5.1-8.8 5.1-15.2v-49.1h23v85.6zm145.4 0h-22.8v-48.9c0-14.1-5.1-21.1-15.4-21.1-4.7 0-8.7 2.1-11.9 6.4-3.2 4.3-4.8 9.4-4.8 15.3v48.2h-22.8v-49.8c0-13.5-5.1-20.2-15.3-20.2-4.9 0-8.8 2-12 6-3.1 4-4.7 9.3-4.7 16v48h-22.8v-85.6h22.8v13.5h.2c6.4-10.4 15.6-15.6 27.6-15.6 12.1 0 20.4 5.5 24.7 16.4 6.6-11 16.1-16.4 28.7-16.4 18.8 0 28.3 11.5 28.3 34.5v53.3zm35.4-10.7v10.7h-22.7V93.8h22.7v54.6h.2c6.6-10.4 16.1-15.6 28.3-15.6 10.9 0 19.3 3.8 25.5 11.4 6.1 7.6 9.2 17.9 9.2 31 0 14.3-3.5 25.7-10.5 34.4-7 8.6-16.4 12.9-28 12.9-10.7 0-18.8-4.3-24.4-12.8h-.3zm-.3-25.9c0 5.9 1.8 10.9 5.5 14.9 3.6 4 8.2 6 13.7 6 6.6 0 11.8-2.6 15.5-7.7 3.7-5.2 5.6-12.4 5.6-21.7 0-7.8-1.7-13.8-5.1-18.2-3.4-4.4-8.2-6.6-14.5-6.6-6 0-11 2.2-14.9 6.7-3.9 4.5-5.8 10.1-5.8 17v9.6zm151.8 36.6h-22.8v-13.2h-.4c-6.4 10.2-15.2 15.3-26.5 15.3-20.2 0-30.3-12.1-30.3-36.2v-51.5H917V184c0 13.8 5.4 20.8 16.3 20.8 5.3 0 9.6-1.9 13-5.7 3.3-3.8 5-8.8 5-15.2v-49.1h22.8v85.6zm11-22c8.4 5.3 16.7 8 24.9 8 10.5 0 15.8-3 15.8-9 0-4.2-4.2-7.7-12.5-10.6-12.2-4.1-19.9-8.2-23.2-12.2-3.3-4-4.9-9.1-4.9-15.3 0-8.3 3.3-14.7 10-19.4 6.7-4.7 15.3-7 25.7-7 7.3 0 14.6 1.2 22 3.5v18.5c-6.6-4-13.9-5.9-21.7-5.9-4.1 0-7.5.8-10 2.4-2.5 1.6-3.8 3.7-3.8 6.3 0 4.3 3.5 7.7 10.6 10.2 8 2.9 13.9 5.4 17.7 7.4 3.8 2 6.7 4.7 8.8 8.1 2.1 3.4 3.1 7.4 3.1 12.1 0 8.7-3.4 15.4-10.3 20.2-6.9 4.8-15.9 7.2-27.2 7.2-9.5 0-17.8-1.5-25-4.6v-19.9zm116.1 22.4h-6.5v-7.4h-.2c-3.2 5.6-8.2 8.5-15 8.5-5.4 0-9.8-1.9-13.1-5.8-3.3-3.9-4.9-9.1-4.9-15.8 0-7.1 1.8-12.8 5.4-17.1 3.6-4.3 8.4-6.5 14.4-6.5s10.3 2.4 13.1 7.1h.2V157h6.5v63.8zm-6.5-26c0-3.5-1.2-6.5-3.6-9-2.4-2.5-5.4-3.7-9-3.7-4.3 0-7.7 1.6-10.2 4.8-2.5 3.2-3.7 7.5-3.7 13 0 5 1.2 8.9 3.5 11.9 2.4 3 5.6 4.5 9.6 4.5 3.9 0 7-1.4 9.6-4.2 2.5-2.8 3.8-6.4 3.8-10.7v-6.6zm51.8 6h-31c.1 5 1.5 8.8 4.1 11.4 2.6 2.6 6 4 10.3 4 5 0 9.5-1.6 13.6-4.9v6.2c-3.9 2.8-9 4.2-15.2 4.2-6.2 0-11-2-14.5-6s-5.2-9.5-5.2-16.5c0-6.5 1.9-12 5.7-16.3 3.8-4.3 8.6-6.4 14.2-6.4 5.7 0 10 1.8 13.2 5.5 3.1 3.7 4.7 8.7 4.7 15.2v3.6zm-6.8-5.7c0-4-1-7.2-2.9-9.5-2-2.3-4.7-3.4-8.2-3.4-3.3 0-6.1 1.2-8.5 3.5-2.4 2.3-3.9 5.5-4.5 9.3h24.1z"/><circle class="st0" cx="1051.9" cy="217.8" r="4.3"/><path class="st0" d="M166.9 94.1c-45 0-81.5 36.5-81.5 81.5v81.5h81.5c45 0 81.5-36.5 81.5-81.5-.1-45-36.5-81.5-81.5-81.5z"/><path d="M166.8 237l-64.2-57.8h128.3zm0-115.8l-52.7 50.6h105.3z" fill="#fff"/></svg>