<?xml version="1.0" encoding="UTF-8" standalone="no"?>
<!-- Generator: Gravit.io -->
<svg xmlns="http://www.w3.org/2000/svg" xmlns:xlink="http://www.w3.org/1999/xlink" style="isolation:isolate" viewBox="0 0 267.44 46.31" width="267.44pt" height="46.31pt"><defs><clipPath id="_clipPath_OB6Sw8ZXZLPVh188NyRrwqPcSERdxiX4"><rect width="267.44" height="46.31"/></clipPath></defs><g clip-path="url(#_clipPath_OB6Sw8ZXZLPVh188NyRrwqPcSERdxiX4)"><path d=" M 139.86 0 L 139.86 44.56 L 131.37 44.56 L 131.37 8.49 C 131.37 6.238 132.264 4.079 133.857 2.487 C 135.449 0.894 137.608 0 139.86 0 Z " fill="rgb(49,123,255)"/><path d=" M 210.59 14.27 C 213.5 16.665 215.42 20.053 215.98 23.78 L 206.98 23.78 C 206.691 22.133 205.813 20.647 204.51 19.6 C 203.116 18.535 201.393 17.99 199.64 18.06 C 197.483 18.022 195.42 18.936 194 20.56 Q 191.75 23.07 191.75 27.88 Q 191.75 32.69 194 35.19 C 195.417 36.817 197.483 37.732 199.64 37.69 C 201.405 37.757 203.138 37.205 204.54 36.13 C 205.843 35.078 206.721 33.59 207.01 31.94 L 216.01 31.94 C 215.453 35.671 213.532 39.063 210.62 41.46 C 207.563 43.852 203.759 45.088 199.88 44.95 C 196.869 45.016 193.891 44.31 191.23 42.9 C 188.69 41.556 186.603 39.494 185.23 36.97 C 183.774 34.166 183.052 31.039 183.13 27.88 C 183.054 24.709 183.776 21.569 185.23 18.75 C 186.598 16.222 188.686 14.158 191.23 12.82 C 193.907 11.438 196.888 10.751 199.9 10.82 C 203.757 10.683 207.541 11.904 210.59 14.27 L 210.59 14.27 Z " fill="rgb(49,123,255)"/><path d=" M 241.04 12.76 C 243.01 14.04 244.512 15.924 245.32 18.13 L 245.32 11.2 L 253.75 11.2 L 253.75 44.56 L 245.32 44.56 L 245.32 37.56 C 244.511 39.771 243.01 41.661 241.04 42.95 C 238.892 44.333 236.374 45.031 233.82 44.95 C 231.151 44.998 228.522 44.299 226.23 42.93 C 223.932 41.511 222.099 39.449 220.96 37 C 219.64 34.145 218.99 31.025 219.06 27.88 C 218.99 24.732 219.639 21.609 220.96 18.75 C 222.105 16.305 223.936 14.245 226.23 12.82 C 228.526 11.462 231.153 10.77 233.82 10.82 C 236.366 10.735 238.88 11.41 241.04 12.76 Z  M 230.04 20.76 C 228.35 22.731 227.487 25.278 227.63 27.87 C 227.482 30.451 228.346 32.987 230.04 34.94 C 233.601 38.376 239.251 38.349 242.78 34.88 C 244.506 32.969 245.405 30.452 245.28 27.88 C 245.412 25.283 244.514 22.738 242.78 20.8 C 239.244 17.326 233.576 17.326 230.04 20.8 L 230.04 20.76 Z " fill="rgb(49,123,255)"/><path d=" M 267.44 0 L 267.44 44.56 L 258.95 44.56 L 258.95 8.49 C 258.95 6.238 259.844 4.079 261.437 2.487 C 263.029 0.894 265.188 0 267.44 0 Z " fill="rgb(49,123,255)"/><g><path d=" M 171.93 26.87 C 170.69 32.82 164.86 37.64 158.93 37.64 C 153 37.64 149.17 32.82 150.42 26.87 C 151.009 24.246 152.367 21.858 154.32 20.01 L 156.01 21.61 C 154.72 22.828 153.819 24.401 153.42 26.13 C 152.59 30.13 155.13 33.31 159.09 33.31 C 163.267 33.137 166.817 30.201 167.77 26.13 C 168.6 22.13 166.06 18.95 162.1 18.95 C 160.894 18.962 159.705 19.242 158.62 19.77 L 158.02 17.39 C 159.697 16.549 161.544 16.101 163.42 16.08 C 169.37 16.13 173.23 20.92 171.93 26.87 Z  M 180.23 28.31 C 178.16 38.23 168.44 46.31 158.53 46.31 C 148.62 46.31 142.26 38.31 144.34 28.31 C 145.337 23.91 147.633 19.91 150.93 16.83 L 152.61 18.42 C 149.989 20.885 148.168 24.079 147.38 27.59 C 145.72 35.52 150.8 41.95 158.73 41.95 C 166.66 41.95 174.43 35.52 176.09 27.59 C 177.75 19.66 172.67 13.24 164.74 13.24 C 162.198 13.266 159.696 13.878 157.43 15.03 L 156.84 12.65 C 159.698 11.183 162.858 10.402 166.07 10.37 C 175.98 10.37 182.33 18.4 180.23 28.31 Z " fill="rgb(49,123,255)"/></g><path d=" M 16.04 37.06 L 16.04 44.35 L 11.58 44.35 C 7.85 44.35 4.99 43.44 3 41.64 C 1.01 39.84 0 36.82 0 32.64 L 0 10.99 L 0 10.99 C 0 6.441 3.681 2.751 8.23 2.74 L 8.47 2.74 L 8.47 10.99 L 15.94 10.99 L 15.94 18.13 L 8.51 18.13 L 8.51 32.73 C 8.396 33.94 8.754 35.148 9.51 36.1 C 10.42 36.847 11.587 37.206 12.76 37.1 L 16.04 37.06 Z " fill="rgb(16,24,90)"/><path d=" M 34.3 12.34 C 36.375 11.111 38.749 10.478 41.16 10.51 L 41.16 19.6 L 38.69 19.6 Q 29.36 19.6 29.36 28.27 L 29.36 44.35 L 20.87 44.35 L 20.87 10.99 L 29.36 10.99 L 29.36 17.37 C 30.548 15.298 32.25 13.566 34.3 12.34 Z " fill="rgb(16,24,90)"/><path d=" M 102.83 13.64 C 105.299 15.723 106.923 18.635 107.4 21.83 L 102.15 21.83 C 100.679 21.802 99.343 20.968 98.67 19.66 C 98.313 19.02 97.846 18.448 97.29 17.97 C 96.048 16.97 94.483 16.458 92.89 16.53 C 91.683 16.45 90.488 16.805 89.52 17.53 C 88.71 18.216 88.263 19.239 88.31 20.3 C 88.287 21.157 88.655 21.977 89.31 22.53 C 90.016 23.128 90.836 23.577 91.72 23.85 C 92.72 24.18 94.06 24.56 95.87 25 C 97.968 25.434 100.031 26.026 102.04 26.77 C 103.636 27.412 105.046 28.443 106.14 29.77 C 107.05 30.887 107.613 32.246 107.76 33.68 C 108.031 36.823 106.857 39.918 104.57 42.09 Q 101.23 44.79 95.51 44.79 Q 89 44.79 85.09 41.87 C 82.44 39.85 80.725 36.84 80.34 33.53 L 86.14 33.53 C 87.387 33.562 88.504 34.309 89.01 35.45 C 89.379 36.239 89.935 36.925 90.63 37.45 C 92.054 38.453 93.771 38.952 95.51 38.87 C 96.708 38.954 97.893 38.574 98.82 37.81 C 99.586 37.109 100.006 36.108 99.97 35.07 C 100 34.18 99.634 33.323 98.97 32.73 C 98.258 32.091 97.415 31.617 96.5 31.34 C 95.5 31.02 94.12 30.64 92.32 30.2 C 90.284 29.761 88.279 29.186 86.32 28.48 C 84.768 27.906 83.39 26.942 82.32 25.68 C 81.145 24.172 80.559 22.288 80.67 20.38 C 80.609 17.656 81.836 15.062 83.98 13.38 C 86.18 11.57 89.24 10.67 93.13 10.67 Q 99.16 10.57 102.83 13.64 Z " fill="rgb(16,24,90)"/><path d=" M 126.54 37.06 L 126.54 44.35 L 122.09 44.35 C 118.35 44.35 115.49 43.44 113.51 41.64 C 111.53 39.84 110.51 36.82 110.51 32.64 L 110.51 10.99 L 110.51 10.99 C 110.51 6.434 114.204 2.74 118.76 2.74 L 119.01 2.74 L 119.01 10.99 L 126.47 10.99 L 126.47 18.13 L 119.01 18.13 L 119.01 32.73 C 118.896 33.94 119.254 35.148 120.01 36.1 C 120.921 36.845 122.088 37.203 123.26 37.1 L 126.54 37.06 Z " fill="rgb(16,24,90)"/><path d=" M 74.33 10.99 L 67.62 10.99 L 67.62 28.69 C 67.62 32.53 66.08 36.3 62.12 37.5 C 60.773 37.923 59.32 37.867 58.01 37.34 C 56.611 36.708 55.484 35.598 54.83 34.21 C 53.68 31.91 53.76 29.31 53.76 26.81 L 53.76 10.99 L 45.33 10.99 L 45.33 30.38 C 45.33 34.91 46.47 38.45 48.76 40.97 C 51.12 43.532 54.49 44.922 57.97 44.77 C 60.436 44.814 62.864 44.155 64.97 42.87 C 65.965 42.255 66.854 41.481 67.6 40.58 L 67.6 44.35 L 76.12 44.35 L 76.12 10.99 L 74.33 10.99 Z " fill="rgb(16,24,90)"/><path d=" M 160.78 21.84 C 160.249 21.834 159.723 21.933 159.23 22.13 L 153.68 0 L 143.37 0 L 160.03 25.43 L 157.68 23.21 C 157.055 23.81 156.624 24.583 156.44 25.43 C 156.195 26.294 156.375 27.223 156.926 27.932 C 157.477 28.64 158.332 29.045 159.23 29.02 C 161.319 28.935 163.095 27.466 163.57 25.43 C 163.815 24.566 163.635 23.637 163.084 22.928 C 162.533 22.22 161.678 21.815 160.78 21.84 L 160.78 21.84 Z " fill="rgb(16,24,90)"/></g></svg>