<svg viewBox="0 0 400 74.07" xmlns="http://www.w3.org/2000/svg"><g transform="translate(0 -1.96)"><path d="m0 52.71 24.88-40.88h-19.46v-7.58h33l-24.9 40.88h24.23v7.58zm85.63-10.38h-17.24l-4.12 10.38h-8.36l21.09-50.71 21 50.71h-8.26zm-2.74-6.79-5.89-14.77-5.87 14.76zm42.52-13.98v31.15h-7.57v-50.71l30.43 33.37v-31.12h7.64v50.68zm80.47 31.15-19.2-21.94v21.94h-7.58v-48.46h7.58v20l15.54-20h9.54l-17.76 23.31 21.35 25.15z"/><path d="m268.53 36.69q-2.08 5.72-4.09 10.5t-4.16 8.81q3.19-.31 5.77-.8a31.57 31.57 0 0 0 4.72-1.2 20.57 20.57 0 0 0 3.94-1.89 19.29 19.29 0 0 0 3.43-2.76 29 29 0 0 0 3.17-3.81q1.54-2.19 3.21-5.1l1.77-3.19.93.65-1.8 3.19a53.68 53.68 0 0 1 -3.4 5.38 29.58 29.58 0 0 1 -3.41 4 19.94 19.94 0 0 1 -3.71 2.82 23.28 23.28 0 0 1 -4.25 1.93 32.64 32.64 0 0 1 -5 1.25q-2.72.47-6 .81a61.63 61.63 0 0 1 -5.48 8.27 33.56 33.56 0 0 1 -5.89 5.86 23 23 0 0 1 -6.5 3.5 22.32 22.32 0 0 1 -7.3 1.09 9.29 9.29 0 0 1 -6.4-2 7.24 7.24 0 0 1 -2.24-5.7 6.71 6.71 0 0 1 1.58-4.4 12.57 12.57 0 0 1 5-3.31 45.6 45.6 0 0 1 8.93-2.39q5.48-1 13.25-1.72 1.35-2.88 2.81-6.31t3.12-7.59l1.63-4.13a47.25 47.25 0 0 1 -3.29 4.45 25.35 25.35 0 0 1 -3.52 3.49 15.79 15.79 0 0 1 -3.78 2.27 10.7 10.7 0 0 1 -7.68.19 8.72 8.72 0 0 1 -3-1.82 8.43 8.43 0 0 1 -2-3 10.69 10.69 0 0 1 -.75-4.15 21.59 21.59 0 0 1 .73-5.53 45.3 45.3 0 0 1 1.84-5.48q1.11-2.73 2.38-5.41t2.37-5.34a45.12 45.12 0 0 0 1.84-5.27 19.35 19.35 0 0 0 .7-5.12 8.82 8.82 0 0 0 -.12-1.73 4.38 4.38 0 0 0 -.5-1.4 2.61 2.61 0 0 0 -2.38-1.27 6.2 6.2 0 0 0 -3.21 1 14.72 14.72 0 0 0 -3.45 3.12 36.29 36.29 0 0 0 -3.59 5.27 63.86 63.86 0 0 0 -3.59 7.47l-.94-.66a61.25 61.25 0 0 1 3.87-8 30.23 30.23 0 0 1 4-5.44 14.08 14.08 0 0 1 3.91-3.09 9 9 0 0 1 4-1 9.29 9.29 0 0 1 3.14.5 6.62 6.62 0 0 1 2.38 1.5 6.55 6.55 0 0 1 1.48 2.26 8 8 0 0 1 .54 3 19.16 19.16 0 0 1 -.8 5.32 53.2 53.2 0 0 1 -2 5.6q-1.18 2.84-2.57 5.72t-2.56 5.67a54.27 54.27 0 0 0 -2 5.43 17.22 17.22 0 0 0 -.8 5 7.4 7.4 0 0 0 .36 2.39 5.55 5.55 0 0 0 1 1.84 4.47 4.47 0 0 0 1.51 1.18 4.36 4.36 0 0 0 1.91.42 8.66 8.66 0 0 0 4-1 18.21 18.21 0 0 0 3.9-2.76 30.63 30.63 0 0 0 3.59-3.9 54.52 54.52 0 0 0 3.14-4.49c1-1.54 1.8-3 2.53-4.51a42 42 0 0 0 1.75-4l8.46-22.61h5.17zm-34.43 37.82a19.64 19.64 0 0 0 5.48-.74 14.53 14.53 0 0 0 5-2.65 25.62 25.62 0 0 0 4.68-5.12 60.89 60.89 0 0 0 4.79-8.2q-5.34.45-10.14 1.2a50.1 50.1 0 0 0 -8.43 2 17.65 17.65 0 0 0 -5.76 3 5.48 5.48 0 0 0 -2.13 4.33 6.27 6.27 0 0 0 1.58 4.63q1.57 1.55 4.93 1.55z" fill="#5baaa1"/><path d="m309.73 50.81a24.74 24.74 0 0 1 -12.93-12.92 24.19 24.19 0 0 1 -1.89-9.4 24.72 24.72 0 0 1 1.89-9.49 25.59 25.59 0 0 1 5.2-7.7 23.84 23.84 0 0 1 7.7-5.16 24.22 24.22 0 0 1 9.41-1.89 24.74 24.74 0 0 1 9.47 1.89 25.32 25.32 0 0 1 7.71 5.16 25.38 25.38 0 0 1 5.16 7.7 24.74 24.74 0 0 1 1.89 9.47 24.17 24.17 0 0 1 -1.89 9.4 23.82 23.82 0 0 1 -5.16 7.7 25.43 25.43 0 0 1 -7.71 5.22 24.69 24.69 0 0 1 -9.47 1.9 24.13 24.13 0 0 1 -9.38-1.88zm-2.35-34.09a16.55 16.55 0 1 0 11.75-4.9 16.54 16.54 0 0 0 -11.75 4.91zm62.62 32.14a14.37 14.37 0 0 1 -4.31-5.22 16.29 16.29 0 0 1 -1.63-7.38v-32h7.57v32a7.88 7.88 0 0 0 3 6.6 12.13 12.13 0 0 0 7.37 2.27 12.43 12.43 0 0 0 7.38-2.28 7.83 7.83 0 0 0 2.94-6.6v-32h7.68v32a17.25 17.25 0 0 1 -1.63 7.38 15.85 15.85 0 0 1 -4.31 5.22 20.66 20.66 0 0 1 -24 0z"/></g></svg>